<!-- Last updated: 2020-06-01 6:12 AM -->

<svg xmlns="http://www.w3.org/2000/svg" version="1.1" width="600" height="400">
<g transform="matrix(12,0,0,-10,0,400)" style="fill:none;">

<g id="grid" style="stroke-width:0.2px;stroke:gray;">
<path d="M1,0V50M3,0V50M4,0V50M5,0V50M6,0V50M7,0V50M8,0V50M10,0V50M12,0V50M15,0V50M17,0V50M20,0V50M25,0V50M30,0V50M35,0V50M40,0V50M50,0V50" vector-effect="non-scaling-stroke"></path>
<path d="M0,1H50M0,3H50M0,4H50M0,5H50M0,6H50M0,7H50M0,8H50M0,10H50M0,12H50M0,15H50M0,17H50M0,20H50M0,25H50M0,30H50M0,35H50M0,40H50M0,50H50" vector-effect="non-scaling-stroke"></path>
</g>

<g id="DMOJ_top_rated">
<g style="stroke:red;stroke-width:0.2px;opacity:0.7;">
<path id="d" style="" transform="" d="M0,0.00L1,0.00L3,0.00L4,0.00L5,0.00L6,0.00L7,0.00L8,0.00L10,0.00L12,0.00L15,0.00L17,0.00L20,0.00L25,0.00L30,0.20L35,1.19L40,2.69L50,11.26" vector-effect="non-scaling-stroke"></path>
<path id="wleung_bvg" style="" transform="" d="M0,0.01L1,0.01L3,0.01L4,0.01L5,0.01L6,0.01L7,0.01L8,0.01L10,0.01L12,0.01L15,0.01L17,0.01L20,0.01L25,0.01L30,0.14L35,1.06L40,2.52L50,9.51" vector-effect="non-scaling-stroke"></path>
<path id="bruce" style="" transform="" d="M0,0.01L1,0.01L3,0.01L4,0.01L5,0.01L6,0.01L7,0.01L8,0.01L10,0.01L12,0.01L15,0.01L17,0.01L20,0.01L25,0.01L30,0.13L35,0.96L40,2.09L50,9.83" vector-effect="non-scaling-stroke"></path>
<path id="bqi343" style="" transform="" d="M0,0.19L1,0.19L3,0.19L4,0.19L5,0.19L6,0.19L7,0.19L8,0.19L10,0.19L12,0.19L15,0.19L17,0.19L20,0.19L25,0.30L30,0.99L35,2.78L40,5.13L50,13.27" vector-effect="non-scaling-stroke"></path>
<path id="Ninjaclasher" style="" transform="" d="M0,0.02L1,0.02L3,0.02L4,0.02L5,0.02L6,0.02L7,0.02L8,0.02L10,0.02L12,0.02L15,0.02L17,0.02L20,0.02L25,0.33L30,1.79L35,4.64L40,7.79L50,16.81" vector-effect="non-scaling-stroke"></path>
<path id="FatalEagle" style="" transform="" d="M0,0.16L1,0.16L3,0.16L4,0.16L5,0.16L6,0.16L7,0.16L8,0.16L10,0.16L12,0.16L15,0.16L17,0.18L20,0.23L25,0.67L30,2.56L35,5.55L40,8.55L50,17.57" vector-effect="non-scaling-stroke"></path>
<path id="Plasmatic" style="" transform="" d="M0,0.03L1,0.03L3,0.03L4,0.03L5,0.03L6,0.03L7,0.03L8,0.03L10,0.03L12,0.03L15,0.03L17,0.03L20,0.03L25,0.68L30,2.88L35,6.86L40,11.15L50,21.15" vector-effect="non-scaling-stroke"></path>
<path id="Zeyu" style="" transform="" d="M0,0.15L1,0.15L3,0.15L4,0.15L5,0.15L6,0.15L7,0.15L8,0.15L10,0.15L12,0.15L15,0.15L17,0.30L20,0.65L25,2.61L30,6.11L35,10.18L40,14.69L50,24.69" vector-effect="non-scaling-stroke"></path>
</g>
<g style="stroke:orangered;stroke-width:0.2px;opacity:0.7;">
<path id="Aaeria" style="" transform="" d="M0,0.18L1,0.18L3,0.18L4,0.18L5,0.18L6,0.18L7,0.18L8,0.18L10,0.18L12,0.18L15,0.18L17,0.21L20,0.30L25,1.09L30,2.79L35,5.36L40,8.20L50,16.78" vector-effect="non-scaling-stroke"></path>
<path id="AvaLovelace" style="" transform="" d="M0,0.09L1,0.09L3,0.09L4,0.09L5,0.09L6,0.09L7,0.09L8,0.09L10,0.09L12,0.09L15,0.09L17,0.09L20,0.09L25,0.61L30,2.87L35,7.16L40,11.50L50,21.50" vector-effect="non-scaling-stroke"></path>
<path id="Dingledooper" style="" transform="" d="M0,0.02L1,0.02L3,0.02L4,0.02L5,0.02L6,0.02L7,0.02L8,0.02L10,0.02L12,0.02L15,0.02L17,0.20L20,0.59L25,3.15L30,7.02L35,11.53L40,16.06L50,26.06" vector-effect="non-scaling-stroke"></path>
<path id="Xyene" style="" transform="" d="M0,0.12L1,0.12L3,0.12L4,0.12L5,0.12L6,0.12L7,0.12L8,0.12L10,0.12L12,0.12L15,0.21L17,0.56L20,1.27L25,4.09L30,7.76L35,12.27L40,16.79L50,26.79" vector-effect="non-scaling-stroke"></path>
</g>
</g>

<g id="people_I_know" style="stroke:blue;stroke-width:0.2px;opacity:0.5">
<path id="Mehdi110" style="" transform="" d="M0,0.38L1,0.42L3,0.51L4,0.66L5,0.80L6,1.20L7,1.60L8,2.20L10,3.39L12,5.11L15,7.96L17,9.96L20,12.96L25,17.96L30,22.96L35,27.96L40,32.96L50,42.96" vector-effect="non-scaling-stroke"></path>
<path id="Timothy" style="" transform="" d="M0,0.43L1,0.77L3,1.50L4,2.04L5,2.61L6,3.28L7,3.94L8,4.75L10,6.38L12,8.28L15,11.13L17,13.13L20,16.13L25,21.13L30,26.13L35,31.13L40,36.13L50,46.13" vector-effect="non-scaling-stroke"></path>
<path id="EdwinYang" style="" transform="" d="M0,0.41L1,0.64L3,1.09L4,1.63L5,2.20L6,3.10L7,4.00L8,4.95L10,6.85L12,8.85L15,11.85L17,13.85L20,16.85L25,21.85L30,26.85L35,31.85L40,36.85L50,46.85" vector-effect="non-scaling-stroke"></path>
<path id="mrgallo" style="" transform="" d="M0,0.43L1,0.87L3,1.75L4,2.41L5,3.08L6,3.89L7,4.71L8,5.66L10,7.56L12,9.56L15,12.56L17,14.56L20,17.56L25,22.56L30,27.56L35,32.56L40,37.56L50,47.56" vector-effect="non-scaling-stroke"></path>
<path id="thomaswu21" style="" transform="" d="M0,0.26L1,0.26L3,0.26L4,0.26L5,0.26L6,0.27L7,0.28L8,0.37L10,0.57L12,1.46L15,3.67L17,5.67L20,8.67L25,13.67L30,18.67L35,23.67L40,28.67L50,38.67" vector-effect="non-scaling-stroke"></path>
<path id="ivanyang06" style="" transform="" d="M0,0.34L1,0.35L3,0.36L4,0.40L5,0.45L6,0.58L7,0.72L8,1.00L10,1.61L12,2.81L15,5.01L17,6.82L20,9.67L25,14.67L30,19.67L35,24.67L40,29.67L50,39.67" vector-effect="non-scaling-stroke"></path>
<path id="danielwang221" style="" transform="" d="M0,0.30L1,0.30L3,0.30L4,0.32L5,0.34L6,0.70L7,1.07L8,1.74L10,3.06L12,4.69L15,7.32L17,9.32L20,12.32L25,17.32L30,22.32L35,27.32L40,32.32L50,42.32" vector-effect="non-scaling-stroke"></path>
<path id="ernest1027" style="" transform="" d="M0,0.33L1,0.33L3,0.33L4,0.33L5,0.34L6,0.36L7,0.38L8,0.44L10,0.59L12,1.18L15,2.62L17,4.33L20,6.91L25,11.91L30,16.91L35,21.91L40,26.91L50,36.91" vector-effect="non-scaling-stroke"></path>
<path id="ULTRAGEKKO" style="" transform="" d="M0,0.36L1,0.38L3,0.42L4,0.61L5,0.84L6,1.61L7,2.39L8,3.29L10,5.09L12,7.09L15,10.09L17,12.09L20,15.09L25,20.09L30,25.09L35,30.09L40,35.09L50,45.09" vector-effect="non-scaling-stroke"></path>
</g>

<g id="other_people_in_my_school" style="stroke-width:2px;opacity:0.3;">
<path id="CheezWhiz" style="stroke:green;" transform="" d="M0,0.05L1,0.05L3,0.05L4,0.05L5,0.05L6,0.05L7,0.05L8,0.05L10,0.05L12,0.32L15,1.15L17,2.48L20,4.80L25,9.80L30,14.80L35,19.80L40,24.80L50,34.80" vector-effect="non-scaling-stroke"></path>
<path id="Leon" style="stroke:orangered" transform="" d="M0,0.18L1,0.18L3,0.18L4,0.18L5,0.18L6,0.18L7,0.18L8,0.18L10,0.18L12,0.23L15,0.42L17,1.14L20,2.60L25,6.10L30,10.38L35,15.13L40,19.88L50,29.88" vector-effect="non-scaling-stroke"></path>
<path id="Pookmeister" style="stroke:deeppink" transform="" d="M0,0.01L1,0.01L3,0.01L4,0.01L5,0.01L6,0.01L7,0.01L8,0.01L10,0.01L12,0.01L15,0.06L17,0.70L20,2.17L25,6.45L30,11.20L35,15.95L40,20.70L50,30.70" vector-effect="non-scaling-stroke"></path>
</g>

<g id="my_alts" style="stroke-width:3px;">
<path id="harry7557558" style="stroke:blue;" transform="" d="M0,0.25L1,0.25L3,0.25L4,0.25L5,0.25L6,0.26L7,0.26L8,0.30L10,0.37L12,0.79L15,1.80L17,3.03L20,4.93L25,9.21L30,13.72L35,18.47L40,23.22L50,33.22" vector-effect="non-scaling-stroke"></path>
<path id="Moana" style="stroke:purple;" transform="" d="M0,0.38L1,0.42L3,0.50L4,0.56L5,0.62L6,0.73L7,0.83L8,0.98L10,1.27L12,1.72L15,2.59L17,3.62L20,5.16L25,8.84L30,12.91L35,17.42L40,21.96L50,31.96" vector-effect="non-scaling-stroke"></path>
</g>

</g>
<g id="text" style="font-family:sans-serif;font-weight:600;">
<g transform="translate(40,70)" style="font-size:24px">
<text x="0" style="fill:purple;">Moana</text>
<text x="85" style="font-size:20px">vs.</text>
<text x="120" style="fill:blue;">harry7557558</text>
</g>
<g transform="translate(40,140)" style="opacity:0.7">
<text style="fill:gray;">and others</text>
<g transform="translate(0,30)">
<text x="0" style="fill:green;">C********</text>
<text x="80" style="fill:orangered;">L***</text>
<text x="140" style="fill:deeppink;">P**********</text>
<text y="25" style="fill:aliceblue;">etc.</text>
</g>
</g>
</g>
</svg>
